#N canvas 112 128 1037 698 10;
#X obj 40 40 bng 59 250 50 0 empty empty empty 17 7 0 10 #fcfcfc #ff00ff
#000000;
#X obj 110 120 print;
#X msg 110 80 oli bb;
#X floatatom 170 80 5 0 0 0 - - -, f 5;
#X msg 170 40 0;
#X msg 200 40 100;
#N canvas 781 153 979 756 osc_connection 1;
#X msg 250 300 disconnect;
#X floatatom 80 350 5 0 0 0 - - -, f 5;
#X obj 80 255 list prepend send;
#X obj 80 280 list trim;
#X obj 80 320 netsend -u -b;
#X msg 220 280 connect localhost 7771;
#X obj 220 250 loadbang;
#X obj 80 230 oscformat;
#X msg 120 190 set \$1;
#X text 80 80 list /address value;
#X text 260 110 ejemplo;
#X obj 80 110 inlet;
#X obj 80 140 unpack s f f f;
#X obj 40 190 pack f f f;
#X msg 140 110 /prueba 50 0.1 0;
#X connect 0 0 4 0;
#X connect 2 0 3 0;
#X connect 3 0 4 0;
#X connect 4 0 1 0;
#X connect 5 0 4 0;
#X connect 6 0 5 0;
#X connect 7 0 2 0;
#X connect 8 0 7 0;
#X connect 11 0 12 0;
#X connect 12 0 8 0;
#X connect 12 1 13 0;
#X connect 12 2 13 1;
#X connect 12 3 13 2;
#X connect 13 0 7 0;
#X connect 14 0 12 0;
#X restore 110 190 pd osc_connection;
#X floatatom 280 110 5 0 0 0 - - -, f 5;
#X floatatom 340 110 5 0 0 0 - - -, f 5;
#X obj 280 200 +, f 5;
#X floatatom 280 225 5 0 0 0 - - -, f 5;
#X obj 290 150 t b f;
#X connect 0 0 1 0;
#X connect 2 0 1 0;
#X connect 3 0 1 0;
#X connect 4 0 3 0;
#X connect 5 0 3 0;
#X connect 7 0 9 0;
#X connect 8 0 11 0;
#X connect 9 0 10 0;
#X connect 11 0 9 0;
#X connect 11 1 9 1;
